# xmcd CD database file
#
# Track frame offsets:
#	150
#	23725
#	41137
#
# Disc length: 858 seconds
#
# Revision: 1
# Processed by: cddbd v1.5.2PL0 Copyright (c) Steve Scherf et al.
# Submitted via: CDex 1.70beta2
#
DISCID=1d035803
DTITLE=谷村有美 - MOON
DYEAR=1995
DGENRE=J-Pop
TTITLE0=MOON
TTITLE1=雪の朝
TTITLE2=MOON (instrumental)
EXTD=YEAR: 1995
EXTT0=
EXTT1=
EXTT2=
PLAYORDER=
